<svg width="534" height="98" viewBox="0 0 534 98" fill="none" xmlns="http://www.w3.org/2000/svg">
<g filter="url(#filter0_i)">
<path d="M0 20C0 8.95431 8.9543 0 20 0H514C525.046 0 534 8.9543 534 20V78C534 89.0457 525.046 98 514 98H20C8.9543 98 0 89.0457 0 78V20Z" fill="#BDA7D0" fill-opacity="0.1"/>
<path d="M0 20C0 8.95431 8.9543 0 20 0H514C525.046 0 534 8.9543 534 20V78C534 89.0457 525.046 98 514 98H20C8.9543 98 0 89.0457 0 78V20Z" fill="#BDA7D0" fill-opacity="0.1"/>
</g>
<defs>
<filter id="filter0_i" x="0" y="0" width="534" height="102" filterUnits="userSpaceOnUse" color-interpolation-filters="sRGB">
<feFlood flood-opacity="0" result="BackgroundImageFix"/>
<feBlend mode="normal" in="SourceGraphic" in2="BackgroundImageFix" result="shape"/>
<feColorMatrix in="SourceAlpha" type="matrix" values="0 0 0 0 0 0 0 0 0 0 0 0 0 0 0 0 0 0 127 0" result="hardAlpha"/>
<feOffset dy="4"/>
<feGaussianBlur stdDeviation="2"/>
<feComposite in2="hardAlpha" operator="arithmetic" k2="-1" k3="1"/>
<feColorMatrix type="matrix" values="0 0 0 0 0 0 0 0 0 0 0 0 0 0 0 0 0 0 0.25 0"/>
<feBlend mode="normal" in2="shape" result="effect1_innerShadow"/>
</filter>
</defs>
</svg>
