<svg width="409" height="99" viewBox="0 0 409 99" fill="none" xmlns="http://www.w3.org/2000/svg">
<g filter="url(#filter0_i)">
<path d="M0 20C0 8.95431 8.9543 0 20 0H389C400.046 0 409 8.9543 409 20V79C409 90.0457 400.046 99 389 99H20C8.95431 99 0 90.0457 0 79V20Z" fill="#A8EFC6" fill-opacity="0.25"/>
<path d="M0 20C0 8.95431 8.9543 0 20 0H389C400.046 0 409 8.9543 409 20V79C409 90.0457 400.046 99 389 99H20C8.95431 99 0 90.0457 0 79V20Z" fill="#A8EFC6" fill-opacity="0.25"/>
</g>
<defs>
<filter id="filter0_i" x="0" y="0" width="409" height="103" filterUnits="userSpaceOnUse" color-interpolation-filters="sRGB">
<feFlood flood-opacity="0" result="BackgroundImageFix"/>
<feBlend mode="normal" in="SourceGraphic" in2="BackgroundImageFix" result="shape"/>
<feColorMatrix in="SourceAlpha" type="matrix" values="0 0 0 0 0 0 0 0 0 0 0 0 0 0 0 0 0 0 127 0" result="hardAlpha"/>
<feOffset dy="4"/>
<feGaussianBlur stdDeviation="2"/>
<feComposite in2="hardAlpha" operator="arithmetic" k2="-1" k3="1"/>
<feColorMatrix type="matrix" values="0 0 0 0 0 0 0 0 0 0 0 0 0 0 0 0 0 0 0.25 0"/>
<feBlend mode="normal" in2="shape" result="effect1_innerShadow"/>
</filter>
</defs>
</svg>
